<svg xmlns="http://www.w3.org/2000/svg" viewBox="0 0 24 24" fill="currentColor">
  <path d="M6.938 4.503c.702 0 1.34.06 1.92.188.577.13 1.07.33 1.485.61.41.28.733.65.96 1.12.225.47.34 1.05.34 1.73 0 .74-.17 1.36-.507 1.86-.338.5-.837.9-1.502 1.22.906.26 1.576.72 2.022 1.37.448.66.665 1.45.665 2.36 0 .75-.13 1.39-.41 1.93-.28.55-.67 1-1.16 1.35-.48.348-1.05.6-1.67.767-.61.165-1.252.254-1.91.254H0V4.51h6.938v-.007zM6.545 9.95c.55 0 1.03-.135 1.42-.4.39-.27.59-.68.59-1.23 0-.3-.05-.553-.158-.76a1.267 1.267 0 00-.44-.5 1.807 1.807 0 00-.66-.27 3.48 3.48 0 00-.82-.1H3.01v3.26h3.535zm.19 5.61c.3 0 .59-.03.87-.1.28-.07.53-.18.75-.34.22-.15.39-.36.52-.62.13-.26.19-.58.19-.97 0-.77-.22-1.33-.67-1.68-.44-.36-1.02-.54-1.73-.54H3.01v4.24h3.725v.01zM15.32 16.03c.39.39.972.585 1.742.585.555 0 1.032-.14 1.432-.42.4-.28.65-.55.748-.81h2.48c-.39 1.22-.97 2.09-1.753 2.61-.78.52-1.73.78-2.84.78-.78 0-1.48-.12-2.12-.36-.64-.24-1.18-.59-1.63-1.04-.45-.45-.8-1-.1-1.64-.26-.64-.39-1.36-.39-2.17 0-.77.13-1.49.39-2.13.26-.64.61-1.2 1.07-1.66.46-.46 1-.82 1.64-1.08.64-.25 1.34-.38 2.1-.38.84 0 1.58.15 2.21.46.63.31 1.16.73 1.58 1.27.42.53.73 1.15.92 1.86.19.7.26 1.46.21 2.27h-7.39c0 .85.31 1.53.7 1.92v-.01zm3.04-5.28c-.32-.35-.83-.53-1.5-.53-.44 0-.8.08-1.1.22-.29.15-.53.33-.72.54-.18.21-.31.43-.39.67-.08.24-.13.46-.14.66h4.57c-.1-.72-.4-1.22-.72-1.56zM14.64 5.28h5.18v1.43h-5.18V5.28z"/>
</svg>
